<svg width="24" height="24" viewBox="0 0 24 24" fill="none" xmlns="http://www.w3.org/2000/svg">
<path fill-rule="evenodd" clip-rule="evenodd" d="M22 12C22 17.5228 17.5228 22 12 22C6.47715 22 2 17.5228 2 12C2 6.47715 6.47715 2 12 2C17.5228 2 22 6.47715 22 12ZM7.62005 9H8.94489V12.9106C8.94489 13.3659 8.83855 13.7493 8.62587 14.061C8.41614 14.3726 8.12517 14.607 7.75298 14.7642C7.38373 14.9214 6.95837 15 6.47688 15C5.99538 15 5.56706 14.9214 5.19191 14.7642C4.81972 14.607 4.52728 14.3726 4.31459 14.061C4.10486 13.7493 4 13.3659 4 12.9106V9H5.32927V12.9106C5.32927 13.1762 5.37506 13.393 5.46663 13.561C5.5582 13.729 5.68965 13.8523 5.86098 13.9309C6.03526 14.0095 6.24056 14.0488 6.47688 14.0488C6.7191 14.0488 6.9244 14.0095 7.09277 13.9309C7.2641 13.8523 7.39407 13.729 7.48269 13.561C7.57426 13.393 7.62005 13.1762 7.62005 12.9106V9ZM10.0393 9H12.4453C12.9386 9 13.3625 9.06775 13.717 9.20325C14.0744 9.33875 14.3491 9.5393 14.5411 9.80488C14.7331 10.0705 14.8291 10.397 14.8291 10.7846C14.8291 11.1016 14.7701 11.374 14.6519 11.6016C14.5367 11.8266 14.3727 12.0149 14.1601 12.1667C14.015 12.2697 13.8524 12.3585 13.672 12.4331L15.0684 14.8618V14.9187H13.6461L12.4244 12.7276H11.3686V14.9187H10.0393V9ZM12.4542 11.7764H11.3686V9.95528H12.4453C12.6816 9.95528 12.8781 9.99187 13.0346 10.065C13.1912 10.1382 13.3079 10.2439 13.3847 10.3821C13.4615 10.5203 13.4999 10.6843 13.4999 10.874C13.4999 11.0528 13.46 11.21 13.3802 11.3455C13.3034 11.481 13.1882 11.5867 13.0346 11.6626C12.881 11.7385 12.6875 11.7764 12.4542 11.7764ZM20 14.9187V13.9675H17.1819V9H15.8527V14.9187H16.7521H17.1819H20Z" fill="#111111"/>
</svg>
